<?xml version="1.0" standalone="no"?>
<!DOCTYPE svg PUBLIC "-//W3C//DTD SVG 20010904//EN"
 "http://www.w3.org/TR/2001/REC-SVG-20010904/DTD/svg10.dtd">
<svg version="1.0" xmlns="http://www.w3.org/2000/svg"
 width="256.000000pt" height="256.000000pt" viewBox="0 0 256.000000 256.000000"
 preserveAspectRatio="xMidYMid meet">
<metadata>
Created by potrace 1.11, written by Peter Selinger 2001-2013
</metadata>
<g transform="translate(0.000000,256.000000) scale(0.100000,-0.100000)"
fill="#000000" stroke="none">
<path d="M1169 2545 c-124 -33 -241 -121 -303 -227 -60 -102 -65 -146 -66
-526 0 -190 -1 -347 -3 -348 -1 -1 -22 -5 -46 -9 -98 -15 -194 -88 -240 -185
l-26 -55 0 -475 0 -475 26 -55 c33 -70 89 -126 159 -159 l55 -26 560 0 560 0
50 27 c68 35 122 92 154 158 l26 55 3 445 c2 317 0 461 -8 500 -27 122 -123
215 -249 241 l-61 13 -1 336 c-1 184 -1 339 0 344 3 15 -40 148 -61 189 -10
21 -47 66 -81 100 -96 97 -186 136 -322 142 -44 1 -101 -3 -126 -10z m241
-177 c70 -32 125 -88 159 -158 l26 -55 3 -357 3 -358 -321 0 -320 0 0 348 c1
338 2 348 24 404 71 175 260 253 426 176z m436 -1115 c72 -51 69 -29 71 -522
3 -494 4 -486 -65 -539 l-35 -27 -537 0 -537 0 -35 27 c-68 52 -68 46 -68 528
0 378 2 437 17 467 17 36 64 78 98 86 11 3 254 4 540 4 l520 -2 31 -22z"/>
</g>
</svg>
